# xmcd
#
# Track frame offsets:
#	150
#	15520
#	34190
#	51208
#	69547
#	87174
#	98725
#	115772
#	132842
#	149616
#
# Disc length: 2261 seconds
#
# Revision: 1
# Processed by: cddbd v1.5.2PL0 Copyright (c) Steve Scherf et al.
# Submitted via: EasyCDDAExtractor 15.3.0.1
#
DISCID=8308d30a
DTITLE=Emmanuel - Inedito
DYEAR=2015
DGENRE=Latin
TTITLE0=Ella
TTITLE1=Privilegio
TTITLE2=No Existe
TTITLE3=Como Quieren Que La Olvide
TTITLE4=Seras
TTITLE5=Deja Que Te Vuelva A Querer
TTITLE6=La Primera Vez
TTITLE7=Hoy Me Toca Vivir
TTITLE8=Largo De Noche O Falda Corta
TTITLE9=A Ti
EXTD=
EXTT0=
EXTT1=
EXTT2=
EXTT3=
EXTT4=
EXTT5=
EXTT6=
EXTT7=
EXTT8=
EXTT9=
PLAYORDER=
